<svg width="106" height="23" viewBox="0 0 106 23" fill="none" xmlns="http://www.w3.org/2000/svg">
<path d="M6.775 18.35C5.45833 18.35 4.29167 18.1167 3.275 17.65C2.25833 17.1833 1.45833 16.5 0.875 15.6C0.308333 14.6833 0.025 13.575 0.025 12.275V11.65H2.7V12.275C2.7 13.5083 3.06667 14.4333 3.8 15.05C4.55 15.6667 5.54167 15.975 6.775 15.975C8.025 15.975 8.96667 15.7167 9.6 15.2C10.2333 14.6667 10.55 13.9833 10.55 13.15C10.55 12.6 10.4 12.15 10.1 11.8C9.8 11.45 9.375 11.175 8.825 10.975C8.275 10.7583 7.61667 10.5583 6.85 10.375L5.925 10.15C4.80833 9.88333 3.83333 9.55833 3 9.175C2.18333 8.775 1.55 8.25 1.1 7.6C0.65 6.95 0.425 6.11667 0.425 5.1C0.425 4.06667 0.675 3.18333 1.175 2.45C1.69167 1.71667 2.4 1.15 3.3 0.749999C4.2 0.349999 5.25833 0.149999 6.475 0.149999C7.69167 0.149999 8.775 0.358332 9.725 0.775C10.6917 1.19167 11.45 1.80833 12 2.625C12.55 3.44167 12.825 4.46667 12.825 5.7V6.6H10.15V5.7C10.15 4.95 9.99167 4.34167 9.675 3.875C9.375 3.40833 8.95 3.06667 8.4 2.85C7.85 2.63333 7.20833 2.525 6.475 2.525C5.40833 2.525 4.575 2.75 3.975 3.2C3.39167 3.63333 3.1 4.24167 3.1 5.025C3.1 5.55833 3.225 6 3.475 6.35C3.74167 6.68333 4.125 6.95833 4.625 7.175C5.125 7.39167 5.75 7.58333 6.5 7.75L7.425 7.975C8.55833 8.225 9.55833 8.55 10.425 8.95C11.2917 9.33333 11.975 9.85833 12.475 10.525C12.975 11.1917 13.225 12.05 13.225 13.1C13.225 14.15 12.9583 15.0667 12.425 15.85C11.9083 16.6333 11.1667 17.25 10.2 17.7C9.23333 18.1333 8.09167 18.35 6.775 18.35ZM19.9594 18.35C19.076 18.35 18.2844 18.2 17.5844 17.9C16.901 17.6 16.351 17.1583 15.9344 16.575C15.5344 15.9917 15.3344 15.2833 15.3344 14.45C15.3344 13.6 15.5344 12.9 15.9344 12.35C16.351 11.7833 16.9094 11.3583 17.6094 11.075C18.326 10.7917 19.1344 10.65 20.0344 10.65H23.7844V9.85C23.7844 9.13333 23.5677 8.55833 23.1344 8.125C22.701 7.69167 22.0344 7.475 21.1344 7.475C20.251 7.475 19.576 7.68333 19.1094 8.1C18.6427 8.51667 18.3344 9.05833 18.1844 9.725L15.7844 8.95C15.9844 8.28333 16.301 7.68333 16.7344 7.15C17.1844 6.6 17.776 6.15833 18.5094 5.825C19.2427 5.49167 20.126 5.325 21.1594 5.325C22.7594 5.325 24.0177 5.73333 24.9344 6.55C25.851 7.36667 26.3094 8.525 26.3094 10.025V15.1C26.3094 15.6 26.5427 15.85 27.0094 15.85H28.0594V18H26.1344C25.551 18 25.076 17.85 24.7094 17.55C24.3427 17.25 24.1594 16.8417 24.1594 16.325V16.25H23.7844C23.651 16.5 23.451 16.7917 23.1844 17.125C22.9177 17.4583 22.526 17.75 22.0094 18C21.4927 18.2333 20.8094 18.35 19.9594 18.35ZM20.3344 16.225C21.3677 16.225 22.201 15.9333 22.8344 15.35C23.4677 14.75 23.7844 13.9333 23.7844 12.9V12.65H20.1844C19.501 12.65 18.951 12.8 18.5344 13.1C18.1177 13.3833 17.9094 13.8083 17.9094 14.375C17.9094 14.9417 18.126 15.3917 18.5594 15.725C18.9927 16.0583 19.5844 16.225 20.3344 16.225ZM30.5631 23V5.675H33.0881V7.45H33.4881C33.8048 6.9 34.2798 6.40833 34.9131 5.975C35.5631 5.54167 36.4881 5.325 37.6881 5.325C38.7214 5.325 39.6631 5.575 40.5131 6.075C41.3798 6.575 42.0714 7.3 42.5881 8.25C43.1214 9.18333 43.3881 10.3167 43.3881 11.65V12.025C43.3881 13.3583 43.1298 14.5 42.6131 15.45C42.0964 16.3833 41.4048 17.1 40.5381 17.6C39.6714 18.1 38.7214 18.35 37.6881 18.35C36.8881 18.35 36.2131 18.25 35.6631 18.05C35.1131 17.85 34.6714 17.6 34.3381 17.3C34.0048 16.9833 33.7381 16.6583 33.5381 16.325H33.1381V23H30.5631ZM36.9381 16.1C38.0714 16.1 38.9964 15.7417 39.7131 15.025C40.4298 14.3083 40.7881 13.2833 40.7881 11.95V11.725C40.7881 10.4083 40.4214 9.39167 39.6881 8.675C38.9714 7.95833 38.0548 7.6 36.9381 7.6C35.8381 7.6 34.9214 7.95833 34.1881 8.675C33.4714 9.39167 33.1131 10.4083 33.1131 11.725V11.95C33.1131 13.2833 33.4714 14.3083 34.1881 15.025C34.9214 15.7417 35.8381 16.1 36.9381 16.1ZM46.5787 23V5.675H49.1037V7.45H49.5037C49.8204 6.9 50.2954 6.40833 50.9287 5.975C51.5787 5.54167 52.5037 5.325 53.7037 5.325C54.737 5.325 55.6787 5.575 56.5287 6.075C57.3954 6.575 58.087 7.3 58.6037 8.25C59.137 9.18333 59.4037 10.3167 59.4037 11.65V12.025C59.4037 13.3583 59.1454 14.5 58.6287 15.45C58.112 16.3833 57.4204 17.1 56.5537 17.6C55.687 18.1 54.737 18.35 53.7037 18.35C52.9037 18.35 52.2287 18.25 51.6787 18.05C51.1287 17.85 50.687 17.6 50.3537 17.3C50.0204 16.9833 49.7537 16.6583 49.5537 16.325H49.1537V23H46.5787ZM52.9537 16.1C54.087 16.1 55.012 15.7417 55.7287 15.025C56.4454 14.3083 56.8037 13.2833 56.8037 11.95V11.725C56.8037 10.4083 56.437 9.39167 55.7037 8.675C54.987 7.95833 54.0704 7.6 52.9537 7.6C51.8537 7.6 50.937 7.95833 50.2037 8.675C49.487 9.39167 49.1287 10.4083 49.1287 11.725V11.95C49.1287 13.2833 49.487 14.3083 50.2037 15.025C50.937 15.7417 51.8537 16.1 52.9537 16.1ZM62.5943 18V0.499999H65.1693V7.425H65.5693C65.736 7.10833 65.9693 6.8 66.2693 6.5C66.586 6.2 66.9943 5.95833 67.4943 5.775C68.011 5.575 68.661 5.475 69.4443 5.475C70.3777 5.475 71.2027 5.68333 71.9193 6.1C72.6527 6.51667 73.2277 7.10833 73.6443 7.875C74.061 8.625 74.2693 9.53333 74.2693 10.6V18H71.6943V10.8C71.6943 9.73333 71.4277 8.95 70.8943 8.45C70.361 7.93333 69.6277 7.675 68.6943 7.675C67.6277 7.675 66.7693 8.025 66.1193 8.725C65.486 9.425 65.1693 10.4417 65.1693 11.775V18H62.5943ZM77.9752 18V5.675H80.5502V18H77.9752ZM79.2752 4C78.7752 4 78.3502 3.84167 78.0002 3.525C77.6669 3.19167 77.5002 2.76667 77.5002 2.25C77.5002 1.73333 77.6669 1.31667 78.0002 1C78.3502 0.666666 78.7752 0.499999 79.2752 0.499999C79.7919 0.499999 80.2169 0.666666 80.5502 1C80.8835 1.31667 81.0502 1.73333 81.0502 2.25C81.0502 2.76667 80.8835 3.19167 80.5502 3.525C80.2169 3.84167 79.7919 4 79.2752 4ZM84.3717 18V5.675H86.8967V7.125H87.2967C87.4967 6.60833 87.8133 6.23333 88.2467 6C88.6967 5.75 89.2467 5.625 89.8967 5.625H91.3717V7.95H89.7967C88.9633 7.95 88.28 8.18333 87.7467 8.65C87.2133 9.1 86.9467 9.8 86.9467 10.75V18H84.3717ZM99.2502 18.35C98.0002 18.35 96.9085 18.0917 95.9752 17.575C95.0419 17.0417 94.3085 16.3 93.7752 15.35C93.2585 14.3833 93.0002 13.2667 93.0002 12V11.7C93.0002 10.4167 93.2585 9.3 93.7752 8.35C94.2919 7.38333 95.0085 6.64167 95.9252 6.125C96.8585 5.59167 97.9335 5.325 99.1502 5.325C100.334 5.325 101.367 5.59167 102.25 6.125C103.15 6.64167 103.85 7.36667 104.35 8.3C104.85 9.23333 105.1 10.325 105.1 11.575V12.55H95.6252C95.6585 13.6333 96.0169 14.5 96.7002 15.15C97.4002 15.7833 98.2669 16.1 99.3002 16.1C100.267 16.1 100.992 15.8833 101.475 15.45C101.975 15.0167 102.359 14.5167 102.625 13.95L104.75 15.05C104.517 15.5167 104.175 16.0083 103.725 16.525C103.292 17.0417 102.717 17.475 102 17.825C101.284 18.175 100.367 18.35 99.2502 18.35ZM95.6502 10.575H102.475C102.409 9.64167 102.075 8.91667 101.475 8.4C100.875 7.86667 100.092 7.6 99.1252 7.6C98.1585 7.6 97.3669 7.86667 96.7502 8.4C96.1502 8.91667 95.7835 9.64167 95.6502 10.575Z" fill="#E5E5E5"/>
</svg>
